<svg xmlns="http://www.w3.org/2000/svg" xmlns:xlink="http://www.w3.org/1999/xlink" width="243.271" height="117.331" viewBox="0 0 243.271 117.331">
  <defs>
    <style>
      .cls-1 {
        fill: #e05329;
      }

      .cls-2 {
        clip-path: url(#clip-path);
      }
    </style>
    <clipPath id="clip-path">
      <path id="Pfad_25" data-name="Pfad 25" class="cls-1" d="M0,43.086H243.271V-74.244H0Z" transform="translate(0 74.244)"/>
    </clipPath>
  </defs>
  <g id="Symbol_3_1" data-name="Symbol 3 – 1" transform="translate(-58.729 -145.919)">
    <g id="Gruppe_25" data-name="Gruppe 25" class="cls-2" transform="translate(58.729 145.919)">
      <g id="Gruppe_20" data-name="Gruppe 20" transform="translate(58.552 0)">
        <path id="Pfad_20" data-name="Pfad 20" class="cls-1" d="M1.825,31.564h0A4.968,4.968,0,0,0,6.793,26.6V-49.421A4.967,4.967,0,0,0,1.825-54.39a4.968,4.968,0,0,0-4.969,4.969V26.6a4.969,4.969,0,0,0,4.969,4.969" transform="translate(3.144 54.39)"/>
      </g>
      <g id="Gruppe_21" data-name="Gruppe 21" transform="translate(76.105 37.036)">
        <path id="Pfad_21" data-name="Pfad 21" class="cls-1" d="M4.992,7.732A2.05,2.05,0,0,1,3.146,4.748a15.3,15.3,0,0,1,26.976-.112,2.05,2.05,0,0,1-1.821,3ZM16.558-13.323C-.423-13.252-13.421,3.557-6.875,21.41A23.721,23.721,0,0,0,7.871,35.726a25.438,25.438,0,0,0,30.156-10.3,2.064,2.064,0,0,0-1.737-3.181l-7.477.032a2.117,2.117,0,0,0-1.467.624A15.278,15.278,0,0,1,3.206,19.249a2.051,2.051,0,0,1,1.822-3l29.6-.123,0-.028,5.152-.021a2.051,2.051,0,0,0,2.042-1.846c.073-.789.111-1.587.106-2.4A25.266,25.266,0,0,0,16.558-13.323" transform="translate(8.601 13.323)"/>
      </g>
      <g id="Gruppe_22" data-name="Gruppe 22" transform="translate(0 35.576)">
        <path id="Pfad_22" data-name="Pfad 22" class="cls-1" d="M12.58,13.947C-2.41,22.879-18.058,7.231-9.126-7.759A10.749,10.749,0,0,1-5.4-11.484C9.588-20.416,25.237-4.767,16.3,10.222a10.749,10.749,0,0,1-3.725,3.725M3.589-24.033c-18.073,0-31.714,18.975-22.085,38.089a21,21,0,0,0,9.352,9.305A26.723,26.723,0,0,0,12.1,25.025a4.887,4.887,0,0,1,6.513,4.619v3.213A15.335,15.335,0,0,1,3.309,47.784a15.351,15.351,0,0,1-14.841-11.5A4.954,4.954,0,0,0-16.3,32.5h-.126A4.91,4.91,0,0,0-21.2,38.6a25.265,25.265,0,0,0,49.659-3.758c.014-.152.021-.307.022-.46l.376-33.149A25.266,25.266,0,0,0,3.589-24.033" transform="translate(21.677 24.033)"/>
      </g>
      <g id="Gruppe_23" data-name="Gruppe 23" transform="translate(192.747 37.08)">
        <path id="Pfad_23" data-name="Pfad 23" class="cls-1" d="M15.9,7.763V7.749l-30.668-.2a1.434,1.434,0,0,1-1.32-2A15.33,15.33,0,0,1-2.042-3.438,15.288,15.288,0,0,1,9.2,1.594a1.87,1.87,0,0,0,1.369.632l8.774.058A1.21,1.21,0,0,0,20.426.527C14.639-10.948.357-17.424-14.215-10.575A23.46,23.46,0,0,0-27.4,10.614V10.8a5.121,5.121,0,0,0,5.078,5.187l2.206.014v.028l30.834.205a1.282,1.282,0,0,1,1.179,1.778,15.337,15.337,0,0,1-14.139,9.2,15.249,15.249,0,0,1-10.672-4.46,1.883,1.883,0,0,0-1.31-.564l-9.318-.062a1.06,1.06,0,0,0-.934,1.563A25.251,25.251,0,0,0-2.312,37.153a25.264,25.264,0,0,0,25.432-25.1A4.26,4.26,0,0,0,18.9,7.784Z" transform="translate(27.403 13.377)"/>
      </g>
      <g id="Gruppe_24" data-name="Gruppe 24" transform="translate(135.027 37.08)">
        <path id="Pfad_24" data-name="Pfad 24" class="cls-1" d="M15.9,7.763V7.749l-30.668-.2a1.434,1.434,0,0,1-1.32-2A15.33,15.33,0,0,1-2.042-3.438,15.291,15.291,0,0,1,9.2,1.594a1.87,1.87,0,0,0,1.369.632l8.774.058A1.21,1.21,0,0,0,20.426.527C14.639-10.948.357-17.424-14.215-10.575A23.46,23.46,0,0,0-27.4,10.614V10.8a5.121,5.121,0,0,0,5.078,5.187l2.206.014v.028l30.834.205a1.282,1.282,0,0,1,1.179,1.778,15.337,15.337,0,0,1-14.139,9.2,15.249,15.249,0,0,1-10.672-4.46,1.883,1.883,0,0,0-1.31-.564l-9.318-.062a1.06,1.06,0,0,0-.934,1.563A25.251,25.251,0,0,0-2.312,37.153a25.264,25.264,0,0,0,25.432-25.1A4.26,4.26,0,0,0,18.9,7.784Z" transform="translate(27.403 13.377)"/>
      </g>
    </g>
  </g>
</svg>
