<?xml version="1.0" encoding="UTF-8" standalone="no"?>
<svg
   xmlns="http://www.w3.org/2000/svg"
   viewBox="0 0 579.23999 59.773335"
   height="59.773335"
   width="579.23999"
   xml:space="preserve"
   id="svg2"
   version="1.1">
   <g
     transform="matrix(1.3333333,0,0,-1.3333333,0,59.773333)"
     id="g10"><g
       transform="scale(0.1)"
       id="g12"><path
         id="path14"
         style="fill:#3a4c5e;fill-opacity:1;fill-rule:nonzero;stroke:none"
         d="m 120.406,322.801 c -12.812,-28.406 -19.804,-61.406 -20.9958,-98.992 0,-6.407 0,-12.903 0,-19.504 0,-6.602 0.1953,-13.309 0.5938,-20.106 1.203,-14.004 3.801,-27.695 7.805,-41.094 3.984,-13.41 10.586,-25.304 19.793,-35.703 9.601,-10.8004 20.695,-17.4997 33.3,-20.0973 12.598,-2.6094 25.5,-3.8984 38.703,-3.8984 0.801,0 1.7,0 2.696,0 0.996,0 1.894,0 2.703,0 L 335.883,84.0039 353.805,16.1328 200.797,9.00391 c -24.395,0 -47.902,2.19529 -70.488,6.60159 C 107.699,20 86.4023,30.2031 66.4023,46.1992 42.3984,65.8008 25.6016,89.707 16,117.898 6.40234,146.102 1.20703,175 0.40625,204.598 c -0.41015625,6.398 -0.507813,12.609 -0.304687,18.605 0.195312,5.996 0.5,12 0.898437,17.996 4.40625,68 22.9023,118 55.5,150 32.5977,32.004 81.504,48 146.699,48 l 150.606,-5.566 -17.903,-67.629 H 205.004 c -43.602,-0.399 -71.805,-14.805 -84.598,-43.203" /><path
         id="path16"
         style="fill:#3a4c5e;fill-opacity:1;fill-rule:nonzero;stroke:none"
         d="m 488.402,289.199 c -2.8,-10.793 -4.804,-21.699 -6.004,-32.695 -1.191,-11.008 -1.796,-21.906 -1.796,-32.695 0,-11.211 0.691,-22.305 2.097,-33.301 1.399,-11.004 3.301,-21.707 5.703,-32.102 4.395,-18.406 11.7,-34.414 21.907,-48.008 10.195,-13.6011 24.492,-23.6011 42.89,-29.9996 6.797,-2.3906 14.004,-4.1992 21.602,-5.3984 7.597,-1.1914 15.195,-1.7969 22.801,-1.7969 7.589,0 15.195,0.6055 22.804,1.7969 7.586,1.1992 14.785,3.0078 21.602,5.3984 18.387,6.3985 32.793,16.3985 43.191,29.9996 10.403,13.594 17.598,29.602 21.602,48.008 2.394,10.395 4.289,21.098 5.695,32.102 1.406,10.996 2.109,22.09 2.109,33.301 0,10.789 -0.703,21.687 -2.109,32.695 -1.406,10.996 -3.301,21.687 -5.695,32.098 -4.004,18.402 -11.199,34.503 -21.602,48.3 -10.398,13.801 -24.804,23.703 -43.191,29.7 -6.817,2.402 -14.016,4.199 -21.602,5.398 -7.609,1.203 -15.215,1.809 -22.804,1.809 -7.606,0 -15.204,-0.606 -22.801,-1.809 -7.598,-1.199 -14.805,-2.996 -21.602,-5.398 -18.398,-6.399 -32.597,-16.407 -42.597,-30 -10,-13.606 -17.403,-29.598 -22.2,-48 z m -93.601,30.606 c 10.398,31.59 25.703,57.293 45.898,77.097 20.196,19.797 46.699,33.899 79.5,42.297 12.004,2.801 24.395,5 37.199,6.602 12.801,1.601 25.594,2.402 38.399,2.402 13.594,0.391 27.402,-0.207 41.406,-1.797 13.992,-1.601 27.391,-4.199 40.195,-7.804 32,-8.008 58.204,-22 78.602,-42 20.402,-20 35.402,-45.801 45,-77.403 3.996,-14.394 7.102,-29.601 9.309,-45.597 2.187,-16.004 3.289,-32 3.289,-47.997 0,-17.207 -1.004,-34.003 -2.996,-50.402 C 808.59,158.801 805.395,143.191 801,128.406 791.402,96.0078 776.195,69.9023 755.406,50.1055 734.605,30.3008 707.789,16.6016 674.996,9.00391 662.191,5.80859 649,3.50781 635.406,2.09766 621.793,0.703125 608.004,0 594,0 c -12.402,0 -24.805,0.808594 -37.199,2.40234 -12.403,1.60157 -24.598,3.8086 -36.602,6.60157 -32.39,7.59769 -59.004,21.29689 -79.793,41.10159 -20.801,19.7968 -36.008,45.9023 -45.605,78.3005 -4.004,13.996 -7.11,29.192 -9.297,45.598 -2.207,16.394 -3.301,33 -3.301,49.805 0,16.796 0.996,33.496 2.996,50.097 2.004,16.59 5.196,31.699 9.602,45.293 v 0.606" /><path
         id="path18"
         style="fill:#3a4c5e;fill-opacity:1;fill-rule:nonzero;stroke:none"
         d="M 988.805,439.805 1165.2,130.203 1161,439.805 h 92.39 V 9.00391 h -105 L 963.004,334.805 967.203,9.00391 H 874.195 V 439.805 h 114.61" /><path
         id="path20"
         style="fill:#3a4c5e;fill-opacity:1;fill-rule:nonzero;stroke:none"
         d="m 1481.4,363.008 c -19.61,-0.41 -36.1,-4.504 -49.5,-12.305 -13.41,-7.805 -20.1,-22.707 -20.1,-44.695 0,-16.809 5.7,-28.801 17.1,-36.008 11.41,-7.199 24.69,-10.801 39.9,-10.801 l 120,0.606 c 4.4,-0.403 9.01,-0.606 13.8,-0.606 4.8,0 9.6,-0.207 14.41,-0.597 13.98,-0.809 27.79,-3.106 41.39,-6.903 13.6,-3.801 25.6,-10.703 36,-20.691 9.6,-8.813 16.81,-19.406 21.6,-31.809 4.8,-12.402 7.8,-25.195 9,-38.398 0.4,-4.004 0.7,-7.903 0.9,-11.699 0.2,-3.809 0.31,-7.707 0.31,-11.7 C 1725.4,87.4023 1711.6,53.4961 1684.8,35.7031 1658,17.8984 1621.6,9.00391 1575.6,9.00391 H 1334.4 V 85.8008 h 226.81 c 19.99,-0.4024 37.28,2.793 51.89,9.5976 14.6,6.7966 20.49,22.2066 17.7,46.2036 -2.01,18.796 -9,30.402 -21,34.804 -11.99,4.395 -26.2,6.797 -42.6,7.196 l -106.79,0.597 c -44.41,-0.398 -79.51,8.496 -105.31,26.707 -25.8,18.196 -38.5,51.098 -38.09,98.692 0.79,50 14.68,84.101 41.7,102.304 26.99,18.196 63.49,27.297 109.49,27.297 l 237,0.606 v -76.797 h -223.8" /><path
         id="path22"
         style="fill:#3a4c5e;fill-opacity:1;fill-rule:nonzero;stroke:none"
         d="m 1874.83,289.199 c -2.8,-10.793 -4.8,-21.699 -6,-32.695 -1.19,-11.008 -1.8,-21.906 -1.8,-32.695 0,-11.211 0.69,-22.305 2.1,-33.301 1.4,-11.004 3.3,-21.707 5.7,-32.102 4.4,-18.406 11.7,-34.414 21.91,-48.008 10.19,-13.6011 24.49,-23.6011 42.88,-29.9996 6.8,-2.3906 14.01,-4.1992 21.61,-5.3984 7.6,-1.1914 15.19,-1.7969 22.8,-1.7969 7.59,0 15.2,0.6055 22.81,1.7969 7.58,1.1992 14.78,3.0078 21.6,5.3984 18.39,6.3985 32.79,16.3985 43.19,29.9996 10.4,13.594 17.6,29.602 21.6,48.008 2.4,10.395 4.29,21.098 5.69,32.102 1.41,10.996 2.12,22.09 2.12,33.301 0,10.789 -0.71,21.687 -2.12,32.695 -1.4,10.996 -3.29,21.687 -5.69,32.098 -4,18.402 -11.2,34.503 -21.6,48.3 -10.4,13.801 -24.8,23.703 -43.19,29.7 -6.82,2.402 -14.02,4.199 -21.6,5.398 -7.61,1.203 -15.22,1.809 -22.81,1.809 -7.61,0 -15.2,-0.606 -22.8,-1.809 -7.6,-1.199 -14.81,-2.996 -21.61,-5.398 -18.39,-6.399 -32.59,-16.407 -42.59,-30 -10,-13.606 -17.41,-29.598 -22.2,-48 z m -93.6,30.606 c 10.4,31.59 25.7,57.293 45.89,77.097 20.2,19.797 46.71,33.899 79.51,42.297 12,2.801 24.4,5 37.2,6.602 12.8,1.601 25.59,2.402 38.4,2.402 13.59,0.391 27.39,-0.207 41.4,-1.797 14,-1.601 27.4,-4.199 40.2,-7.804 32,-8.008 58.2,-22 78.6,-42 20.4,-20 35.4,-45.801 45,-77.403 3.99,-14.394 7.1,-29.601 9.3,-45.597 2.19,-16.004 3.29,-32 3.29,-47.997 0,-17.207 -1,-34.003 -2.99,-50.402 -2.01,-16.402 -5.2,-32.012 -9.6,-46.797 -9.6,-32.3982 -24.8,-58.5037 -45.59,-78.3005 -20.8,-19.8047 -47.63,-33.5039 -80.42,-41.10159 -12.8,-3.19532 -26,-5.4961 -39.58,-6.90625 C 2008.22,0.703125 1994.43,0 1980.42,0 c -12.39,0 -24.79,0.808594 -37.19,2.40234 -12.4,1.60157 -24.6,3.8086 -36.6,6.60157 -32.39,7.59769 -59,21.29689 -79.79,41.10159 -20.8,19.7968 -36.01,45.9023 -45.61,78.3005 -4,13.996 -7.11,29.192 -9.3,45.598 -2.2,16.394 -3.3,33 -3.3,49.805 0,16.796 0.99,33.496 3,50.097 2,16.59 5.2,31.699 9.6,45.293 v 0.606" /><path
         id="path24"
         style="fill:#3a4c5e;fill-opacity:1;fill-rule:nonzero;stroke:none"
         d="m 2355.13,15.3008 c -23.81,4.2031 -45.7,16.8945 -65.7,38.1055 -17.21,18 -28.01,38.1953 -32.4,60.5977 -4.42,22.391 -6.61,45.391 -6.61,69.004 v 256.797 h 90.61 V 203.406 c -0.41,-40.008 3.98,-70.605 13.19,-91.804 9.2,-21.2036 37.6,-31.2036 85.21,-31.2036 h 106.8 V 9.00391 h -114.6 c -27.21,0 -52.71,2.09769 -76.5,6.29689" /><path
         id="path26"
         style="fill:#3a4c5e;fill-opacity:1;fill-rule:nonzero;stroke:none"
         d="M 2597.66,9.00391 V 439.805 h 94.81 V 9.00391 h -94.81" /><path
         id="path28"
         style="fill:#3a4c5e;fill-opacity:1;fill-rule:nonzero;stroke:none"
         d="m 2977.47,364.805 h -105 V 84.0039 h 105 c 0.8,-0.4023 1.7,-0.5976 2.69,-0.5976 1,0 1.9,0 2.71,0 13.19,0 26.1,1.289 38.7,3.8984 12.6,2.5976 23.69,9.2969 33.3,20.0973 9.6,11.192 16.29,23.797 20.1,37.801 3.79,13.996 6.29,28.203 7.5,42.598 0.39,6.008 0.6,12.004 0.6,18 0,6.004 0,12 0,18.008 0,5.996 0,12.293 0,18.894 0,6.602 -0.41,13.098 -1.21,19.504 -0.8,13.992 -3.1,27.793 -6.89,41.395 -3.81,13.593 -10.5,25.597 -20.1,35.996 -9.61,10.8 -20.7,17.597 -33.3,20.402 -12.6,2.793 -25.51,4.199 -38.7,4.199 -0.81,0 -1.71,0 -2.71,0 -0.99,0 -1.89,0 -2.69,0 z m 1.79,75 c 65.61,-0.403 114.61,-16.602 147,-48.606 32.41,-32 50.8,-82 55.21,-150 0.39,-5.996 0.68,-12 0.9,-17.996 0.19,-5.996 0.1,-12.207 -0.3,-18.605 -0.82,-29.598 -6.01,-58.496 -15.6,-86.7 -9.61,-28.191 -26.41,-52.0972 -50.41,-71.6988 -19.59,-15.9961 -40.7,-26.1992 -63.3,-30.5937 -22.6,-4.4063 -46.29,-6.60159 -71.09,-6.60159 H 2781.86 V 439.805 h 197.4" /><path
         id="path30"
         style="fill:#3a4c5e;fill-opacity:1;fill-rule:nonzero;stroke:none"
         d="m 3349.46,188.406 h 128.4 l -65.39,165.598 z M 3464.07,439.805 3647.66,9.00391 h -100.8 L 3507.27,111.602 H 3320.06 L 3281.67,9.00391 h -95.41 l 181.8,430.80109 h 96.01" /><path
         id="path32"
         style="fill:#3a4c5e;fill-opacity:1;fill-rule:nonzero;stroke:none"
         d="m 3602.07,364.199 v 75 h 372 v -75 H 3834.26 V 9.00391 h -93.59 V 364.199 h -138.6" /><path
         id="path34"
         style="fill:#3a4c5e;fill-opacity:1;fill-rule:nonzero;stroke:none"
         d="m 4121.06,338.105 c -16.41,-17.402 -25.61,-42.109 -27.6,-74.101 l 250.8,0.594 v -75 h -251.4 c 0,-15.203 1.7,-29.793 5.09,-43.797 3.4,-14.004 10.3,-26.797 20.71,-38.399 9.2,-10.8004 20.09,-17.4997 32.69,-20.0973 12.6,-2.6094 25.51,-3.8984 38.71,-3.8984 0.8,0 1.7,0 2.7,0 0.99,0 1.89,0 2.69,0 l 148.81,0.5976 V 9.00391 h -153.01 c -24.39,0 -47.91,2.19529 -70.48,6.60159 -22.62,4.3945 -43.91,14.5976 -63.91,30.5937 -24,19.6016 -40.8,43.5078 -50.41,71.6988 -9.59,28.204 -14.78,57.102 -15.59,86.7 -0.41,6.398 -0.5,12.609 -0.31,18.605 0.2,5.996 0.51,12 0.9,17.996 4.41,68 22.91,118 55.51,150 32.6,32.004 81.5,48 146.7,48 l 150.6,0.606 v -75 h -148.81 c -33.2,-0.403 -57.98,-9.297 -74.39,-26.7" /></g></g></svg>